<!-- icon666.com - MILLIONS vector ICONS FREE --><svg id="Icon_Set" enable-background="new 0 0 256 256" viewBox="0 0 256 256" xmlns="http://www.w3.org/2000/svg"><path d="m74.075 68.157c-.173-5.057-6.958-6.695-9.369-2.246-8.454 15.6-1.009 30.653-1.009 30.653l19.476-5.399c-6.878-3.432-8.791-14.019-9.098-23.008z" fill="#a4a4a5" style="fill: rgb(255, 235, 251);"></path><path d="m209.366 130.285c-11.84-3.74-21.94.1-26.94 2.75l6.5 18.03v-.01c3.22-6.03 12.13-9.34 20.01-11.14 4.93-1.13 5.26-8.1.43-9.63z" fill="#a4a4a5" style="fill: rgb(255, 235, 251);"></path><path d="m158.115 71.329c-17.254 4.138-23.475 19.737-23.475 19.737l17.032 10.879c-2.044-7.411 4.553-15.909 11.034-22.146 3.646-3.508.329-9.65-4.591-8.47z" fill="#a4a4a5" style="fill: rgb(255, 235, 251);"></path><path d="m17.64 109.258c-2.714-4.27-9.392-2.24-9.213 2.817.627 17.732 14.679 26.928 14.679 26.928l14.046-14.532c-7.669.531-14.687-7.623-19.512-15.213z" fill="#a4a4a5" style="fill: rgb(255, 235, 251);"></path><path d="m165.255 123.492c-4.5-.437-8.088-3.797-8.821-8.258-3.811-23.197-27.267-31.656-45.039-16.298-3.733 3.226-9.212 3.218-12.946-.006-17.622-15.219-40.835-7.038-44.933 15.752-.796 4.425-4.487 7.745-8.967 8.133-10.644.92-19.837 8.608-22.937 21.067-4.673 18.772 6.013 41.856 23.378 48.638 4.32 1.687 7.072 6.069 6.473 10.667-1.003 7.7.164 15.577 3.509 22.857 7.013 15.261 22.62 24.732 39.415 24.732h17.567c17.309 0 33.301-10.067 40.015-26.022 2.732-6.492 3.767-13.416 3.106-20.236-.468-4.828 2.643-9.175 7.288-10.574 10.687-3.219 19.558-12.916 23.851-24.712 0 0 .001 0 .001-.001 8.196-22.519-2.269-43.925-20.96-45.739z" fill="#b76c6c" style="fill: rgb(15, 163, 209);"></path><path d="m78.709 177.491c10.879-18.843 38.077-18.843 48.956 0l4.875 8.444 4.875 8.444c10.879 18.843-2.72 42.397-24.478 42.397h-9.75-9.75c-21.758 0-35.357-23.554-24.478-42.397l4.875-8.444z" fill="#87828e" style="fill: rgb(254, 218, 246);"></path><ellipse cx="83.173" cy="127.034" fill="#87828e" rx="15.224" ry="22.59" transform="matrix(.94 -.342 .342 .94 -38.432 36.108)" style="fill: rgb(254, 218, 246);"></ellipse><ellipse cx="50.778" cy="158.592" fill="#87828e" rx="15.224" ry="22.59" transform="matrix(.94 -.342 .342 .94 -51.179 26.931)" style="fill: rgb(254, 218, 246);"></ellipse><ellipse cx="126.68" cy="127.034" fill="#87828e" rx="22.59" ry="15.224" transform="matrix(.342 -.94 .94 .342 -36.02 202.627)" style="fill: rgb(254, 218, 246);"></ellipse><ellipse cx="158.753" cy="159.237" fill="#87828e" rx="22.59" ry="15.224" transform="matrix(.342 -.94 .94 .342 -45.177 253.954)" style="fill: rgb(254, 218, 246);"></ellipse><path d="m93.399 47.887h-2.593c-5.523 0-10-4.477-10-10v-8.83c0-5.523 4.477-10 10-10h2.593c5.523 0 10 4.477 10 10v8.83c0 5.522-4.477 10-10 10z" fill="#87828e" style="fill: rgb(254, 218, 246);"></path><path d="m131.014 17.377c-5.52 0-10 4.48-10 10v12.18c0 5.53 4.48 10 10 10h22.09v-32.18z" fill="#ff4a73" style="fill: rgb(15, 160, 209);"></path><path d="m222.576 62.261-48.02-.542c-13.807 0-25-11.193-25-25v-6.495c0-13.807 11.193-25 25-25l48.02.542c13.807 0 25 11.193 25 25v6.495c0 13.807-11.193 25-25 25z" fill="#44c7b6" style="fill: rgb(73, 181, 228);"></path><path d="m108.44 236.78h-15c-21.76 0-35.36-23.56-24.48-42.4l4.87-8.45 4.88-8.44c6.88-11.92 20.3-16.3 31.98-13.13-6.78 1.83-12.98 6.21-16.98 13.13l-4.88 8.44-4.87 8.45c-10.88 18.84 2.72 42.4 24.48 42.4z" fill="#a4a4a5" style="fill: rgb(255, 235, 251);"></path><path d="m94.27 146.25c-.99.88-2.12 1.56-3.37 2.01-7.9 2.88-17.76-4.29-22.03-16.02-4.27-11.72-1.32-23.56 6.58-26.43 3.7-1.35 7.84-.49 11.63 2.01-5.28 4.61-6.8 14.56-3.21 24.42 2.27 6.23 6.11 11.18 10.4 14.01z" fill="#a4a4a5" style="fill: rgb(255, 235, 251);"></path><path d="m61.87 177.81c-.99.88-2.12 1.56-3.37 2.01-7.9 2.88-17.76-4.3-22.03-16.02-4.26-11.73-1.32-23.56 6.58-26.44 3.7-1.34 7.84-.49 11.62 2.02-5.27 4.62-6.78 14.56-3.2 24.42 2.27 6.22 6.11 11.17 10.4 14.01z" fill="#a4a4a5" style="fill: rgb(255, 235, 251);"></path><path d="m127.37 121.83c-3.58 9.86-2.07 19.81 3.21 24.42-3.79 2.5-7.92 3.36-11.63 2.01-7.9-2.87-10.84-14.71-6.58-26.43 4.27-11.73 14.14-18.9 22.04-16.02 1.25.46 2.38 1.14 3.37 2.01-4.29 2.83-8.14 7.78-10.41 14.01z" fill="#a4a4a5" style="fill: rgb(255, 235, 251);"></path><path d="m159.45 154.03c-3.59 9.86-2.07 19.81 3.21 24.42-3.79 2.5-7.93 3.36-11.63 2.01-7.9-2.87-10.85-14.71-6.58-26.43s14.13-18.9 22.03-16.02c1.25.45 2.38 1.13 3.37 2.01-4.29 2.84-8.13 7.79-10.4 14.01z" fill="#a4a4a5" style="fill: rgb(255, 235, 251);"></path><path d="m225.2 62.12c-.86.09-1.73.14-2.62.14l-48.02-.54c-13.81 0-25-11.19-25-25v-6.5c0-13.8 11.19-25 25-25l12.35.14c-12.56 1.32-22.35 11.95-22.35 24.86v6.5c0 13.81 11.19 25 25 25z" fill="#4bdbc3" style="fill: rgb(15, 163, 209);"></path><path d="m136.01 39.56v-12.18c0-5.52 4.48-10 10-10h-15c-5.52 0-10 4.48-10 10v12.18c0 5.53 4.48 10 10 10h15c-5.52 0-10-4.47-10-10z" fill="#f973a3" style="fill: rgb(65, 177, 225);"></path><path d="m222.58 5.77-15-.173c13.8 0 25 11.363 25 25.173v6.49c0 12.92-9.81 23.55-22.38 24.86l12.38.14c13.8 0 25-11.19 25-25v-6.49c0-13.81-11.2-25-25-25z" fill="#3bb2a0" style="fill: rgb(37, 141, 182);"></path><path d="m90.48 40.4c0 2.71.46 5.27 1.26 7.49h-.93c-5.53 0-10-4.48-10-10v-8.83c0-5.53 4.47-10 10-10h1.01c-.85 2.26-1.34 4.9-1.34 7.71z" fill="#a4a4a5" style="fill: rgb(255, 235, 251);"></path><g fill="#5f266d"><path d="m131.13 175.491c-12.416-21.507-43.454-21.529-55.884 0l-9.751 16.888c-5.832 10.101-5.832 22.163 0 32.264 5.832 10.102 16.278 16.133 27.942 16.133h19.5c11.664 0 22.11-6.031 27.942-16.132s5.832-22.163 0-32.265zm2.822 45.153c-4.387 7.597-12.242 12.132-21.015 12.132h-19.5c-8.772 0-16.628-4.536-21.014-12.133-4.387-7.597-4.387-16.667-.001-24.264l9.751-16.887c9.338-16.174 32.68-16.191 42.028 0l9.75 16.888c4.387 7.596 4.387 16.666.001 24.264z" fill="#5f266d" style="fill: rgb(2, 114, 161);"></path><path d="m76.169 148.962c16.668 12.121 33.545-5.214 25.069-28.502-8.558-23.511-32.583-25.573-37.525-5.72-2.963 11.905 2.525 27 12.456 34.222zm2.968-39.797c5.338 0 11.586 5.794 14.584 14.031 5.142 14.129-1.8 27.335-12.847 19.295-12.852-9.341-12.982-33.326-1.737-33.326z" fill="#5f266d" style="fill: rgb(2, 114, 161);"></path><path d="m68.843 152.017c-5.101-14.011-17.032-22.099-27.159-18.412-16.141 5.874-14.107 35.137 2.09 46.914 16.835 12.245 33.476-5.397 25.069-28.502zm-20.365 22.031c-7.274-5.288-11.572-17.087-9.398-25.819 3.29-13.204 17.079-7.669 22.245 6.524 5.112 14.049-1.78 27.346-12.847 19.295z" fill="#5f266d" style="fill: rgb(2, 114, 161);"></path><path d="m133.685 148.962c16.288-11.845 18.157-41.067 2.09-46.914-10.132-3.687-22.061 4.4-27.159 18.412-8.514 23.393 8.416 40.61 25.069 28.502zm-.646-39.397c5.639 2.052 7.648 11.804 4.188 21.308-5.088 13.983-18.927 19.862-22.244 6.523-3.435-13.8 8.847-31.184 18.056-27.831z" fill="#5f266d" style="fill: rgb(2, 114, 161);"></path><path d="m167.847 134.25c-16.139-5.874-33.39 17.846-28.555 37.281 4.957 19.915 28.978 17.762 37.525-5.72 4.912-13.493 1.417-27.78-8.97-31.561zm1.454 28.826c-3.446 9.469-11.187 15.711-16.905 13.63-8.976-3.267-7.659-24.407 4.059-32.926 11.133-8.097 17.926 5.333 12.846 19.296z" fill="#5f266d" style="fill: rgb(2, 114, 161);"></path><path d="m210.571 126.471c-11.25-3.554-21.04-.999-27.125 1.646-4.749-4.928-10.893-7.935-17.804-8.606h-.001c-2.705-.262-4.819-2.241-5.26-4.925-.795-4.841-2.433-9.254-4.745-13.068-.023-.212-.05-.424-.108-.636-1.213-4.396 2.321-10.859 9.951-18.2 6.576-6.329.575-17.372-8.298-15.242-15.014 3.6-22.49 14.831-25.126 19.781-8.036-.335-16.306 2.667-23.275 8.69-2.233 1.929-5.478 1.926-7.717-.007-4.755-4.106-10.125-6.808-15.612-8.006-.158-.11-.314-.222-.492-.31-4.079-2.036-6.525-8.984-6.887-19.566-.312-9.127-12.538-12.032-16.884-4.015-7.164 13.219-4.168 25.955-2.233 31.479-4.728 4.687-8.043 11.078-9.375 18.489-.473 2.626-2.683 4.623-5.375 4.855-2.604.225-5.089.796-7.436 1.652-4.509.231-10.118-4.501-15.754-13.369-4.891-7.699-16.911-4.02-16.586 5.104.529 14.984 9.522 24.429 14.005 28.229-.259.806-.495 1.629-.704 2.47-5.227 21 6.831 45.92 25.805 53.331 2.688 1.05 4.317 3.692 3.961 6.425-1.107 8.504.221 17.164 3.841 25.043 7.556 16.439 24.454 27.062 43.051 27.062h17.567c19.271 0 36.424-11.175 43.7-28.47 2.952-7.012 4.128-14.68 3.401-22.174-.278-2.868 1.555-5.483 4.459-6.357 17.03-5.128 30.215-25.073 29.449-45.653 2.431-3.434 8.351-6.362 16.865-8.307 8.901-2.042 9.441-14.59.742-17.345zm-51.524-51.252c.963-.237 1.614.996.886 1.698-6.021 5.793-9.885 11.241-11.605 16.301-2.347-1.837-4.955-3.315-7.795-4.344-.05-.018-.101-.031-.151-.049 2.774-4.331 8.598-11.192 18.665-13.606zm-90.825-7.402c.477-.883 1.821-.526 1.854.477.281 8.21 1.707 14.648 4.238 19.292-2.987.494-5.747 1.382-8.556 2.868-1.334-5.014-2.377-13.702 2.464-22.637zm-55.797 44.116c-.035-1.003 1.302-1.376 1.84-.529 4.41 6.939 8.906 11.765 13.448 14.481-2.216 1.962-4.156 4.292-5.779 6.933-3.692-3.617-9.147-10.649-9.509-20.885zm170.031 55.931c-3.996 10.981-12.138 19.507-21.246 22.25-6.503 1.958-10.757 8.179-10.115 14.79.599 6.178-.373 12.505-2.812 18.299-6.025 14.32-20.285 23.573-36.327 23.573h-17.568c-15.481 0-29.527-8.793-35.781-22.402-2.992-6.511-4.091-13.659-3.177-20.67.831-6.388-2.863-12.519-8.984-14.91-15.212-5.941-25.198-26.887-20.951-43.946 2.567-10.32 10.002-17.235 19.4-18.048 6.284-.543 11.448-5.235 12.559-11.41 3.559-19.785 23.097-26.63 38.381-13.432 5.271 4.551 12.915 4.554 18.176.005 15.433-13.335 35.17-6.216 38.477 13.919 1.021 6.217 6.112 10.983 12.383 11.592h-.001c16.207 1.571 24.786 20.608 17.586 40.39zm25.59-31.848c-6.999 1.599-12.514 3.81-16.527 6.598-.767-2.77-1.826-5.406-3.185-7.85 4.883-1.815 11.929-3.159 19.823-.665.955.301.871 1.691-.111 1.917z" fill="#5f266d" style="fill: rgb(2, 114, 161);"></path><path d="m222.621 1.767-48.065-.542c-9.711 0-18.316 4.803-23.582 12.153h-19.959c-7.72 0-14 6.28-14 14v2.09h-9.615c0-8.695-6.698-14.411-14-14.411h-2.593c-7.72 0-14 6.28-14 14v8.83c0 7.72 6.28 14 14 14h2.593c7.323 0 14-5.732 14-14.419h9.615v2.09c0 7.72 6.28 14 14 14h19.95c5.261 7.355 13.859 12.161 23.546 12.161.003 0 48.063.542 48.065.542 15.99 0 29-13.009 29-29v-6.495c0-15.991-13.01-29-28.955-28.999zm-123.222 36.12c0 3.309-2.691 6-6 6h-2.593c-3.309 0-6-2.691-6-6v-8.83c0-3.309 2.691-6 6-6h2.593c3.309 0 6 2.691 6 6zm46.156-1.168c0 3.081.488 6.05 1.382 8.838h-15.923c-3.309 0-6-2.691-6-6v-12.18c0-3.309 2.691-6 6-6h15.926c-1.665 5.187-1.385 8.569-1.385 15.342zm98.021.542c0 11.572-9.408 20.987-20.978 21l-48.043-.542c-11.579 0-21-9.42-21-21v-6.495c0-11.58 9.421-21 20.955-21l48.065.542c11.579 0 21 9.42 21 21v6.495z" fill="#5f266d" style="fill: rgb(2, 114, 161);"></path><path d="m221.285 15.832c-3.678-.994-5.205-.789-15.987-.789-2.209 0-4 1.791-4 4s1.791 4 4 4c10.764 0 11.447-.151 13.899.512 2.125.576 4.328-.679 4.905-2.818.577-2.133-.685-4.329-2.817-4.905z" fill="#5f266d" style="fill: rgb(2, 114, 161);"></path><path d="m235.113 26.414c-1.237-1.829-3.724-2.311-5.555-1.072-1.83 1.238-2.31 3.725-1.072 5.555 1.199 1.773 2.067 3.604 4.565 3.604 3.173 0 5.114-3.573 3.31-6.242z" fill="#5f266d" style="fill: rgb(2, 114, 161);"></path></g></svg>