<!-- icon666.com - MILLIONS vector ICONS FREE --><svg viewBox="0 0 110 97" xmlns="http://www.w3.org/2000/svg"><g><g><path d="m49.406 87.014h-30.406v-33.431h27.79a22.4 22.4 0 0 0 2.62 33.431z" fill="#ffe36e" style="fill: rgb(255, 235, 254);"></path><path d="m109 53.583v33.431h-32.564a22.383 22.383 0 0 0 2.62-33.431z" fill="#ffe36e" style="fill: rgb(255, 235, 254);"></path><path d="m109 45.744v7.839h-29.944a22.382 22.382 0 0 0 -32.27 0h-27.786v-7.839a3.573 3.573 0 0 1 3.57-3.571h82.86a3.573 3.573 0 0 1 3.57 3.571z" fill="#6ed1d3" style="fill: rgb(254, 218, 246);"></path><path d="m109 87.014v3.64a3.573 3.573 0 0 1 -3.57 3.57h-82.864a3.573 3.573 0 0 1 -3.566-3.57v-3.64h30.41a22.39 22.39 0 0 0 27.03 0z" fill="#6ed1d3" style="fill: rgb(254, 218, 246);"></path><path d="m85.346 69.133a22.457 22.457 0 1 1 -6.29-15.55 22.346 22.346 0 0 1 6.29 15.55z" fill="#1b998b" style="fill: rgb(74, 222, 205);"></path><path d="m76.136 69.133a13.232 13.232 0 1 1 -3.706-9.162 13.165 13.165 0 0 1 3.706 9.162z" fill="#6ed1d3" style="fill: rgb(254, 218, 246);"></path><path d="m85.346 34.793h12.575v7.344h-12.575z" fill="#ff8a5b" style="fill: rgb(255, 158, 158);"></path><path d="m27.931 36.417h13.358v5.793h-13.358z" fill="#ff8a5b" style="fill: rgb(255, 158, 158);"></path><g fill="#ffe36e"><path d="m101.662 49.628h-12.833a1.75 1.75 0 0 1 0-3.5h12.833a1.75 1.75 0 0 1 0 3.5z" fill="#ffe36e" style="fill: rgb(255, 235, 254);"></path><path d="m34.2 49.628h-5.948a1.75 1.75 0 1 1 0-3.5h5.948a1.75 1.75 0 1 1 0 3.5z" fill="#ffe36e" style="fill: rgb(255, 235, 254);"></path></g></g><g fill="#4c2b0f"><path d="m18.991 70.883a1.75 1.75 0 0 0 1.75-1.744v-1.3a1.75 1.75 0 0 0 -1.745-1.755 1.75 1.75 0 0 0 -1.75 1.745v1.3a1.749 1.749 0 0 0 1.745 1.754z" fill="#4c2b0f" style="fill: rgb(2, 114, 161);"></path><path d="m105.426 40.423h-5.755v-5.63a1.75 1.75 0 0 0 -1.75-1.75h-12.575a1.75 1.75 0 0 0 -1.75 1.75v5.63h-40.557v-4.006a1.749 1.749 0 0 0 -1.75-1.75h-13.358a1.749 1.749 0 0 0 -1.75 1.75v4.006h-3.616a5.327 5.327 0 0 0 -5.319 5.321v12.694a1.75 1.75 0 0 0 3.5 0v-3.105h22.369a24.111 24.111 0 0 0 1.807 29.931h-24.175v-6.738a1.751 1.751 0 0 0 -1.747-1.751 1.75 1.75 0 0 0 -1.75 1.749v8.489 3.639a5.327 5.327 0 0 0 5.319 5.321h82.861a5.327 5.327 0 0 0 5.32-5.321v-44.908a5.327 5.327 0 0 0 -5.324-5.321zm-18.326-3.88h9.075v3.844h-9.075zm20.15 48.721h-26.33a24.085 24.085 0 0 0 1.812-29.931h24.514zm-77.565-47.1h9.858v2.256h-9.862zm-8.935 7.577a1.822 1.822 0 0 1 1.819-1.821h5.009a1.75 1.75 0 0 0 .357.037h13.354a1.741 1.741 0 0 0 .356-.037h63.781a1.822 1.822 0 0 1 1.82 1.821v6.089h-27.471a24.109 24.109 0 0 0 -33.708 0h-25.321zm27.3 9.051a20.653 20.653 0 1 1 -5.793 14.338 20.439 20.439 0 0 1 5.792-14.33zm-27.3 35.858v-1.886h28.108a23.963 23.963 0 0 0 7.805 3.71h-34.1a1.822 1.822 0 0 1 -1.817-1.821zm86.5 0a1.822 1.822 0 0 1 -1.82 1.821h-36.247a23.929 23.929 0 0 0 7.8-3.71h30.263z" fill="#4c2b0f" style="fill: rgb(2, 114, 161);"></path><path d="m53.9 81.063a14.95 14.95 0 1 0 -5.936-11.93 14.825 14.825 0 0 0 5.936 11.93zm.777-19.88a11.449 11.449 0 1 1 -3.213 7.95 11.333 11.333 0 0 1 3.215-7.95z" fill="#4c2b0f" style="fill: rgb(2, 114, 161);"></path><path d="m88.829 49.628h12.833a1.75 1.75 0 0 0 0-3.5h-12.833a1.75 1.75 0 0 0 0 3.5z" fill="#4c2b0f" style="fill: rgb(2, 114, 161);"></path><path d="m34.2 46.128h-5.948a1.75 1.75 0 1 0 0 3.5h5.948a1.75 1.75 0 1 0 0-3.5z" fill="#4c2b0f" style="fill: rgb(2, 114, 161);"></path></g></g></svg>