<!-- icon666.com - MILLIONS vector ICONS FREE --><svg viewBox="0 -50 512 470" xmlns="http://www.w3.org/2000/svg"><path d="m339.625 79.210938c-13.667969-15.574219-30.835938-35.730469-46.054688-53.757813-19.644531-23.269531-55.496093-23.269531-75.144531 0-15.21875 18.027344-32.386719 38.183594-46.054687 53.757813-12.449219 14.1875-33.800782 15.839843-48.523438 4.027343-26.59375-21.335937-54.792968-32.203125-79.953125-37.398437-27.140625-5.601563-46.976562 25.496094-30.34375 47.660156 47.902344 63.832031 47.902344 132.089844 47.902344 132.089844v151.964844h389.09375v-151.964844s0-68.257813 47.902344-132.089844c16.628906-22.164062-3.203125-53.261719-30.34375-47.660156-25.160157 5.195312-53.359375 16.0625-79.953125 37.398437-14.722656 11.8125-36.074219 10.160157-48.527344-4.027343zm0 0" fill="#f4e74d" style="fill: rgb(255, 250, 161);"></path><path d="m256 249.472656-91.832031-5.285156s-15.554688-34.058594 14.820312-87.121094c30.378907-53.066406 27.132813-117.078125 27.132813-117.082031-11.695313 13.773437-23.671875 27.746094-33.75 39.226563-12.449219 14.1875-33.800782 15.839843-48.523438 4.027343-26.59375-21.335937-54.792968-32.203125-79.953125-37.398437-27.140625-5.601563-46.976562 25.496094-30.34375 47.660156 47.902344 63.832031 47.902344 132.089844 47.902344 132.089844v151.964844h107.246094c.371093-115.167969 87.300781-128.082032 87.300781-128.082032zm0 0" fill="#eedb00" style="fill: rgb(245, 233, 123);"></path><path d="m455.183594 403.910156h-398.371094c-14.554688 0-26.351562-11.800781-26.351562-26.351562 0-14.554688 11.796874-26.355469 26.351562-26.355469h398.371094c14.554687 0 26.355468 11.800781 26.355468 26.355469 0 14.550781-11.800781 26.351562-26.355468 26.351562zm0 0" fill="#fcf5af" style="fill: rgb(255, 250, 161);"></path><path d="m455.183594 258.546875h-398.371094c-14.554688 0-26.351562-11.800781-26.351562-26.355469 0-14.554687 11.796874-26.351562 26.351562-26.351562h398.371094c14.554687 0 26.355468 11.796875 26.355468 26.351562 0 14.554688-11.800781 26.355469-26.355468 26.355469zm0 0" fill="#fcf5af" style="fill: rgb(255, 250, 161);"></path><path d="m97.789062 232.191406c0-14.554687 11.800782-26.351562 26.355469-26.351562h-67.332031c-14.554688 0-26.351562 11.796875-26.351562 26.351562 0 14.554688 11.796874 26.355469 26.351562 26.355469h67.332031c-14.554687 0-26.355469-11.800781-26.355469-26.355469zm0 0" fill="#f9ee80" style="fill: rgb(245, 233, 123);"></path><path d="m97.789062 377.558594c0-14.554688 11.800782-26.355469 26.355469-26.355469h-67.332031c-14.554688 0-26.351562 11.800781-26.351562 26.355469 0 14.550781 11.796874 26.351562 26.351562 26.351562h67.332031c-14.554687 0-26.355469-11.800781-26.355469-26.351562zm0 0" fill="#f9ee80" style="fill: rgb(245, 233, 123);"></path><path d="m290.191406 133.449219c0-23.148438-15.308594-41.914063-34.191406-41.914063s-34.191406 18.765625-34.191406 41.914063c0 23.148437 15.308594 41.914062 34.191406 41.914062s34.191406-18.765625 34.191406-41.914062zm0 0" fill="#ff8a98" style="fill: rgb(254, 154, 154);"></path><path d="m68.738281 139.136719c-8.132812-17.296875-26.167969-25.941407-40.28125-19.304688-14.109375 6.636719-18.953125 26.039063-10.816406 43.339844 8.132813 17.296875 26.167969 25.9375 40.28125 19.300781 14.109375-6.636718 18.953125-26.039062 10.816406-43.335937zm0 0" fill="#29ce69" style="fill: rgb(254, 218, 246);"></path><path d="m443.265625 139.140625c-8.136719 17.296875-3.292969 36.699219 10.820313 43.335937 14.109374 6.636719 32.144531-2.003906 40.28125-19.300781 8.132812-17.300781 3.289062-36.703125-10.820313-43.339843-14.113281-6.636719-32.148437 2.007812-40.28125 19.304687zm0 0" fill="#73da8c" style="fill: rgb(255, 235, 251);"></path><path d="m200.171875 311.777344c0-9.078125-9.242187-16.441406-20.644531-16.441406-11.398438 0-20.644532 7.363281-20.644532 16.441406s9.246094 16.4375 20.644532 16.4375c11.402344 0 20.644531-7.359375 20.644531-16.4375zm0 0" fill="#ff9eb1" style="fill: rgb(254, 190, 224);"></path><path d="m353.113281 311.777344c0-9.078125-9.242187-16.441406-20.644531-16.441406-11.398438 0-20.644531 7.363281-20.644531 16.441406s9.246093 16.4375 20.644531 16.4375c11.402344 0 20.644531-7.359375 20.644531-16.4375zm0 0" fill="#ff9eb1" style="fill: rgb(254, 190, 224);"></path><path d="m271.511719 291.859375c-1.269531-.835937-6.882813-2.996094-10.386719 2.152344-1.683594 2.464843-4.132812 2.761719-5.125 2.761719-.996094 0-3.484375-.269532-5.125-2.761719-2.273438-3.464844-6.925781-4.425781-10.386719-2.152344-3.464843 2.273437-4.425781 6.925781-2.152343 10.386719 3.921874 5.96875 10.523437 9.53125 17.664062 9.53125s13.742188-3.5625 17.664062-9.53125c2.273438-3.460938 1.308594-8.113282-2.152343-10.386719zm0 0" fill="#000000" style="fill: rgb(2, 114, 161);"></path><path d="m194.183594 281.53125c-4.910156 0-9.527344 1.914062-12.996094 5.382812-2.929688 2.929688-2.929688 7.679688 0 10.609376 2.929688 2.929687 7.675781 2.929687 10.605469 0 .863281-.859376 1.867187-.988282 2.390625-.988282.519531 0 1.453125.207032 2.386718.988282 4.734376 3.964843 9.144532 1.464843 10.605469 0 2.933594-2.929688 2.933594-7.679688.003907-10.609376-3.472657-3.46875-8.085938-5.382812-12.996094-5.382812zm0 0" fill="#000000" style="fill: rgb(2, 114, 161);"></path><path d="m317.816406 281.53125c-4.910156 0-9.523437 1.914062-12.996094 5.382812-2.929687 2.929688-2.929687 7.679688 0 10.609376 2.929688 2.929687 7.679688 2.929687 10.609376 0 .859374-.859376 1.863281-.988282 2.386718-.988282.523438 0 1.453125.207032 2.386719.988282 4.738281 3.964843 9.144531 1.464843 10.609375 0 2.929688-2.929688 2.929688-7.679688 0-10.609376-3.472656-3.46875-8.085938-5.382812-12.996094-5.382812zm0 0" fill="#000000" style="fill: rgb(2, 114, 161);"></path><path d="m297.691406 133.449219c0-27.246094-18.703125-49.414063-41.691406-49.414063-22.992188 0-41.695312 22.167969-41.695312 49.414063 0 27.246093 18.703124 49.414062 41.695312 49.414062 22.988281 0 41.691406-22.167969 41.691406-49.414062zm-68.382812 0c0-18.972657 11.972656-34.414063 26.691406-34.414063 14.714844 0 26.691406 15.441406 26.691406 34.414063 0 18.972656-11.976562 34.410156-26.691406 34.410156-14.71875 0-26.691406-15.4375-26.691406-34.410156zm0 0" fill="#000000" style="fill: rgb(2, 114, 161);"></path><path d="m492.085938 116.265625c3.835937-6.300781 7.976562-12.421875 12.359374-18.265625 9.449219-12.589844 10.082032-29.351562 1.613282-42.707031-8.5-13.398438-23.988282-19.992188-39.46875-16.800781-30.957032 6.390624-58.929688 19.476562-83.132813 38.894531-11.664062 9.359375-28.441406 7.988281-38.195312-3.125-11.648438-13.277344-27.113281-31.324219-45.957031-53.648438-10.792969-12.78125-26.578126-20.113281-43.304688-20.113281-16.730469 0-32.511719 7.332031-43.304688 20.113281-18.847656 22.320313-34.308593 40.371094-45.960937 53.648438-9.75 11.113281-26.527344 12.484375-38.195313 3.125-11.5625-9.277344-24.144531-17.203125-37.402343-23.554688-3.730469-1.789062-8.214844-.210937-10.003907 3.523438-1.792968 3.734375-.214843 8.214843 3.519532 10.007812 12.222656 5.855469 23.828125 13.164063 34.496094 21.726563 17.945312 14.394531 43.796874 12.230468 58.859374-4.933594 11.714844-13.347656 27.242188-31.46875 46.148438-53.863281 7.933594-9.398438 19.542969-14.789063 31.839844-14.789063 12.300781 0 23.90625 5.390625 31.84375 14.789063 18.90625 22.394531 34.433594 40.515625 46.148437 53.863281 15.0625 17.164062 40.914063 19.328125 58.855469 4.933594 22.335938-17.917969 48.167969-30 76.777344-35.902344 11.300781-2.332031 19.6875 3.710938 23.769531 10.140625 4.054687 6.398437 5.9375 16.5-.945313 25.667969-5.128906 6.839844-9.945312 14.039062-14.363281 21.457031-15.929687-2.3125-33.273437 7.769531-41.613281 25.492187-9.308594 19.796876-4.105469 42.164063 11.4375 51.703126-.769531 3.574218-1.453125 7.144531-2.050781 10.6875h-379.707031c-.601563-3.542969-1.285157-7.117188-2.050782-10.6875 15.539063-9.539063 20.742188-31.90625 11.433594-51.703126-8.335938-17.722656-25.683594-27.804687-41.613281-25.496093-4.417969-7.414063-9.234375-14.613281-14.367188-21.453125-6.882812-9.167969-5-19.269532-.941406-25.664063 4.078125-6.433593 13.945313-13.589843 37.957031-6.644531 3.976563 1.152344 8.136719-1.148438 9.285156-5.128906 1.144532-3.980469-1.199218-7.980469-5.128906-9.285156-30.769531-10.222657-46.28125-.378907-54.78125 13.023437-8.472656 13.351563-7.839844 30.113281 1.609375 42.707031 4.382813 5.839844 8.527344 11.960938 12.363281 18.265625-17.753906 13.558594-13.730468 40.171875-9.0625 50.097657 4.667969 9.925781 17.269532 24.53125 38.859376 25.804687.464843 2.230469.894531 4.457031 1.292968 6.675781-15.910156 2.765625-28.042968 16.660156-28.042968 33.347656 0 17.703126 13.660156 32.265626 30.992187 33.722657v77.914062c-17.332031 1.460938-30.992187 16.023438-30.992187 33.726563 0 18.667968 15.1875 33.855468 33.855468 33.855468h398.371094c18.667969 0 33.855469-15.1875 33.855469-33.855468 0-17.703125-13.660157-32.265625-30.996094-33.726563v-77.914062c17.335937-1.457031 30.996094-16.023438 30.996094-33.722657 0-16.683593-12.132813-30.578124-28.039063-33.347656.394532-2.21875.824219-4.441406 1.289063-6.675781 20.757812.609375 34.1875-15.878906 38.855469-25.804687 4.667968-9.925782 10.851562-37.832032-9.0625-50.101563zm-467.660157 43.714844c-3.199219-6.804688-5.671875-27.171875 7.226563-33.355469 12.261718-5.878906 25.304687 5.085938 30.300781 15.707031 6.363281 13.527344 3.292969 28.867188-7.222656 33.359375-14.695313 6.269532-27.101563-8.902344-30.304688-15.710937zm449.613281 217.578125c0 10.394531-8.460937 18.851562-18.855468 18.851562h-398.371094c-10.394531 0-18.851562-8.457031-18.851562-18.851562 0-10.398438 8.457031-18.855469 18.851562-18.855469h331.878906c4.140625 0 7.5-3.355469 7.5-7.5 0-4.140625-3.359375-7.5-7.5-7.5h-319.738281v-77.65625h374.089844v77.65625h-20.53125c-4.144531 0-7.503907 3.359375-7.503907 7.5 0 4.144531 3.359376 7.5 7.503907 7.5h32.671875c10.394531 0 18.855468 8.457031 18.855468 18.855469zm0-145.367188c0 10.398438-8.460937 18.851563-18.855468 18.851563h-398.371094c-10.394531 0-18.851562-8.457031-18.851562-18.851563 0-10.394531 8.457031-18.851562 18.851562-18.851562h398.371094c10.394531 0 18.855468 8.457031 18.855468 18.851562zm13.53125-72.210937c-3.199218 6.808593-14.523437 22.53125-30.300781 15.710937-10.492187-4.539062-13.585937-19.832031-7.222656-33.359375 6.359375-13.527343 20.027344-20.722656 30.300781-15.707031 14.164063 6.910156 10.425782 26.550781 7.222656 33.355469zm0 0" fill="#000000" style="fill: rgb(2, 114, 161);"></path></svg>